<?xml version="1.0" standalone="yes"?>
<svg xmlns="http://www.w3.org/2000/svg" width="1200" height="667">
<path style="fill:#ffffff; stroke:none;" d="M0 0L0 667L1200 667L1200 0L0 0z"/>
<path style="fill:#fde0bc; stroke:none;" d="M582 134L582 135L585 135L582 134z"/>
<path style="fill:#fcd39f; stroke:none;" d="M585 134L585 135L588 135L585 134z"/>
<path style="fill:#fcbb6c; stroke:none;" d="M588 134L588 135L595 135L588 134z"/>
<path style="fill:#f99d2b; stroke:none;" d="M595 134.424C577.359 136.74 560.34 137.479 543 142.427C500.336 154.602 462.258 182.018 436.428 218C422.612 237.246 412.401 259.164 406.152 282C378.467 383.165 436.135 492.357 536 525.645C565.899 535.611 597.92 537.904 629 533.718C734.274 519.536 807.025 421.889 799.911 318C794.317 236.314 734.117 164.718 656 142.291C637.465 136.969 614.31 131.89 595 134.424z"/>
<path style="fill:#fcbb6c; stroke:none;" d="M605 134L605 135L612 135L605 134z"/>
<path style="fill:#fcd39f; stroke:none;" d="M612 134L612 135L615 135L612 134z"/>
<path style="fill:#fde0bc; stroke:none;" d="M615 134L615 135L618 135L615 134M573.667 135.333L574.333 135.667L573.667 135.333z"/>
<path style="fill:#fcd39f; stroke:none;" d="M575 135L576 136L575 135z"/>
<path style="fill:#fcbb6c; stroke:none;" d="M576 135L576 136L579 136L576 135M620 135L620 136L623 136L620 135z"/>
<path style="fill:#fcd39f; stroke:none;" d="M623.667 135.333L624.333 135.667L623.667 135.333z"/>
<path style="fill:#fde0bc; stroke:none;" d="M625.667 135.333L626.333 135.667L625.667 135.333M566.667 136.333L567.333 136.667L566.667 136.333z"/>
<path style="fill:#fcd39f; stroke:none;" d="M568 136L569 137L568 136z"/>
<path style="fill:#fcbb6c; stroke:none;" d="M569.667 136.333L570.333 136.667L569.667 136.333M629.667 136.333L630.333 136.667L629.667 136.333z"/>
<path style="fill:#fcd39f; stroke:none;" d="M631 136L632 137L631 136z"/>
<path style="fill:#fde0bc; stroke:none;" d="M632.667 136.333L633.333 136.667L632.667 136.333M561 137L562 138L561 137z"/>
<path style="fill:#fcd39f; stroke:none;" d="M562 137L563 138L562 137z"/>
<path style="fill:#fcbb6c; stroke:none;" d="M563.667 137.333L564.333 137.667L563.667 137.333M635.667 137.333L636.333 137.667L635.667 137.333z"/>
<path style="fill:#fcd39f; stroke:none;" d="M637 137L638 138L637 137z"/>
<path style="fill:#fde0bc; stroke:none;" d="M638 137L639 138L638 137M556 138L557 139L556 138z"/>
<path style="fill:#fcd39f; stroke:none;" d="M557 138L558 139L557 138z"/>
<path style="fill:#fcbb6c; stroke:none;" d="M558.667 138.333L559.333 138.667L558.667 138.333M640.667 138.333L641.333 138.667L640.667 138.333z"/>
<path style="fill:#fcd39f; stroke:none;" d="M642 138L643 139L642 138z"/>
<path style="fill:#fde0bc; stroke:none;" d="M643 138L644 139L643 138M552 139L553 140L552 139z"/>
<path style="fill:#fcd39f; stroke:none;" d="M553 139L554 140L553 139z"/>
<path style="fill:#fcbb6c; stroke:none;" d="M554 139L555 140L554 139M645 139L646 140L645 139z"/>
<path style="fill:#fcd39f; stroke:none;" d="M646 139L647 140L646 139z"/>
<path style="fill:#fde0bc; stroke:none;" d="M647 139L648 140L647 139M548 140L549 141L548 140z"/>
<path style="fill:#fcbb6c; stroke:none;" d="M549.667 140.333L550.333 140.667L549.667 140.333M649 140L650 141L649 140z"/>
<path style="fill:#fcd39f; stroke:none;" d="M650 140L651 141L650 140z"/>
<path style="fill:#fde0bc; stroke:none;" d="M651 140L652 141L651 140M544 141L545 142L544 141z"/>
<path style="fill:#fcd39f; stroke:none;" d="M545 141L546 142L545 141z"/>
<path style="fill:#fcbb6c; stroke:none;" d="M546 141L547 142L546 141M653 141L654 142L653 141z"/>
<path style="fill:#fcd39f; stroke:none;" d="M654 141L655 142L654 141z"/>
<path style="fill:#fde0bc; stroke:none;" d="M655 141L656 142L655 141M541 142L542 143L541 142z"/>
<path style="fill:#fcbb6c; stroke:none;" d="M542 142L543 143L542 142M656.667 142.333L657.333 142.667L656.667 142.333z"/>
<path style="fill:#fde0bc; stroke:none;" d="M658 142L659 143L658 142z"/>
<path style="fill:#fcd39f; stroke:none;" d="M538 143L539 144L538 143z"/>
<path style="fill:#fcbb6c; stroke:none;" d="M539 143L540 144L539 143M660 143L661 144L660 143z"/>
<path style="fill:#fde0bc; stroke:none;" d="M661 143L662 144L661 143z"/>
<path style="fill:#fcd39f; stroke:none;" d="M535 144L536 145L535 144z"/>
<path style="fill:#fcbb6c; stroke:none;" d="M536 144L537 145L536 144M663 144L664 145L663 144z"/>
<path style="fill:#fde0bc; stroke:none;" d="M664 144L665 145L664 144M532 145L533 146L532 145z"/>
<path style="fill:#fcbb6c; stroke:none;" d="M533 145L534 146L533 145M666 145L667 146L666 145z"/>
<path style="fill:#fde0bc; stroke:none;" d="M667 145L668 146L667 145M529 146L530 147L529 146z"/>
<path style="fill:#fcbb6c; stroke:none;" d="M530 146L531 147L530 146z"/>
<path style="fill:#fcd39f; stroke:none;" d="M669 146L670 147L669 146z"/>
<path style="fill:#fde0bc; stroke:none;" d="M670 146L671 147L670 146M526 147L527 148L526 147z"/>
<path style="fill:#fcd39f; stroke:none;" d="M527 147L528 148L527 147z"/>
<path style="fill:#fcbb6c; stroke:none;" d="M671 147L672 148L671 147z"/>
<path style="fill:#fcd39f; stroke:none;" d="M672 147L673 148L672 147z"/>
<path style="fill:#fde0bc; stroke:none;" d="M524 148L525 149L524 148z"/>
<path style="fill:#fcbb6c; stroke:none;" d="M525 148L526 149L525 148M674 148L675 149L674 148z"/>
<path style="fill:#fde0bc; stroke:none;" d="M675 148L676 149L675 148M521 149L522 150L521 149z"/>
<path style="fill:#fcd39f; stroke:none;" d="M522 149L523 150L522 149z"/>
<path style="fill:#fcbb6c; stroke:none;" d="M676 149L677 150L676 149z"/>
<path style="fill:#fcd39f; stroke:none;" d="M677 149L678 150L677 149z"/>
<path style="fill:#fde0bc; stroke:none;" d="M519 150L520 151L519 150z"/>
<path style="fill:#fcbb6c; stroke:none;" d="M520 150L521 151L520 150z"/>
<path style="fill:#fcd39f; stroke:none;" d="M679 150L680 151L679 150z"/>
<path style="fill:#fde0bc; stroke:none;" d="M680 150L681 151L680 150M517 151L518 152L517 151z"/>
<path style="fill:#fcbb6c; stroke:none;" d="M518 151L519 152L518 151M681 151L682 152L681 151z"/>
<path style="fill:#fde0bc; stroke:none;" d="M682 151L683 152L682 151z"/>
<path style="fill:#fcd39f; stroke:none;" d="M515 152L516 153L515 152z"/>
<path style="fill:#fcbb6c; stroke:none;" d="M683 152L684 153L683 152z"/>
<path style="fill:#fde0bc; stroke:none;" d="M684 152L685 153L684 152z"/>
<path style="fill:#fcd39f; stroke:none;" d="M513 153L514 154L513 153z"/>
<path style="fill:#fcbb6c; stroke:none;" d="M685 153L686 154L685 153z"/>
<path style="fill:#fcd39f; stroke:none;" d="M686 153L687 154L686 153M511 154L512 155L511 154M688 154L689 155L688 154M509 155L510 156L509 155z"/>
<path style="fill:#fcbb6c; stroke:none;" d="M689 155L690 156L689 155z"/>
<path style="fill:#fcd39f; stroke:none;" d="M690 155L691 156L690 155M507 156L508 157L507 156M692 156L693 157L692 156M505 157L506 158L505 157z"/>
<path style="fill:#fcbb6c; stroke:none;" d="M693 157L694 158L693 157z"/>
<path style="fill:#fde0bc; stroke:none;" d="M694 157L695 158L694 157z"/>
<path style="fill:#fcd39f; stroke:none;" d="M503 158L504 159L503 158z"/>
<path style="fill:#fcbb6c; stroke:none;" d="M695 158L696 159L695 158z"/>
<path style="fill:#fde0bc; stroke:none;" d="M696 158L697 159L696 158M501 159L502 160L501 159z"/>
<path style="fill:#fcbb6c; stroke:none;" d="M502 159L503 160L502 159M697 159L698 160L697 159z"/>
<path style="fill:#fde0bc; stroke:none;" d="M698 159L699 160L698 159M499 160L500 161L499 160z"/>
<path style="fill:#fcbb6c; stroke:none;" d="M500 160L501 161L500 160z"/>
<path style="fill:#fcd39f; stroke:none;" d="M699 160L700 161L699 160M498 161L499 162L498 161M701 161L702 162L701 161M496 162L497 163L496 162z"/>
<path style="fill:#fcbb6c; stroke:none;" d="M702 162L703 163L702 162z"/>
<path style="fill:#fde0bc; stroke:none;" d="M703 162L704 163L703 162M494 163L495 164L494 163z"/>
<path style="fill:#fcbb6c; stroke:none;" d="M495 163L496 164L495 163M704 163L705 164L704 163z"/>
<path style="fill:#fcd39f; stroke:none;" d="M493 164L494 165L493 164M706 164L707 165L706 164z"/>
<path style="fill:#fde0bc; stroke:none;" d="M491 165L492 166L491 165z"/>
<path style="fill:#fcbb6c; stroke:none;" d="M492 165L493 166L492 165M707 165L708 166L707 165z"/>
<path style="fill:#fde0bc; stroke:none;" d="M708 165L709 166L708 165z"/>
<path style="fill:#fcbb6c; stroke:none;" d="M490 166L491 167L490 166z"/>
<path style="fill:#fcd39f; stroke:none;" d="M709 166L710 167L709 166z"/>
<path style="fill:#fde0bc; stroke:none;" d="M488 167L489 168L488 167z"/>
<path style="fill:#fcbb6c; stroke:none;" d="M710 167L711 168L710 167z"/>
<path style="fill:#fde0bc; stroke:none;" d="M711 167L712 168L711 167z"/>
<path style="fill:#fcbb6c; stroke:none;" d="M487 168L488 169L487 168z"/>
<path style="fill:#fcd39f; stroke:none;" d="M712 168L713 169L712 168z"/>
<path style="fill:#fde0bc; stroke:none;" d="M485 169L486 170L485 169z"/>
<path style="fill:#fcbb6c; stroke:none;" d="M713 169L714 170L713 169z"/>
<path style="fill:#fde0bc; stroke:none;" d="M714 169L715 170L714 169z"/>
<path style="fill:#fcbb6c; stroke:none;" d="M484 170L485 171L484 170z"/>
<path style="fill:#fcd39f; stroke:none;" d="M715 170L716 171L715 170z"/>
<path style="fill:#fde0bc; stroke:none;" d="M482 171L483 172L482 171z"/>
<path style="fill:#fcbb6c; stroke:none;" d="M483 171L484 172L483 171M716 171L717 172L716 171z"/>
<path style="fill:#fcd39f; stroke:none;" d="M481 172L482 173L481 172z"/>
<path style="fill:#fde0bc; stroke:none;" d="M718 172L719 173L718 172z"/>
<path style="fill:#fcbb6c; stroke:none;" d="M480 173L481 174L480 173z"/>
<path style="fill:#fcd39f; stroke:none;" d="M719 173L720 174L719 173z"/>
<path style="fill:#fde0bc; stroke:none;" d="M478 174L479 175L478 174z"/>
<path style="fill:#fcbb6c; stroke:none;" d="M720 174L721 175L720 174z"/>
<path style="fill:#fcd39f; stroke:none;" d="M477 175L478 176L477 175z"/>
<path style="fill:#fde0bc; stroke:none;" d="M722 175L723 176L722 175z"/>
<path style="fill:#fcbb6c; stroke:none;" d="M476 176L477 177L476 176z"/>
<path style="fill:#fcd39f; stroke:none;" d="M723 176L724 177L723 176z"/>
<path style="fill:#fde0bc; stroke:none;" d="M474 177L475 178L474 177z"/>
<path style="fill:#fcbb6c; stroke:none;" d="M475 177L476 178L475 177M724 177L725 178L724 177z"/>
<path style="fill:#fde0bc; stroke:none;" d="M473 178L474 179L473 178z"/>
<path style="fill:#fcbb6c; stroke:none;" d="M725 178L726 179L725 178z"/>
<path style="fill:#fcd39f; stroke:none;" d="M472 179L473 180L472 179z"/>
<path style="fill:#fde0bc; stroke:none;" d="M727 179L728 180L727 179z"/>
<path style="fill:#fcbb6c; stroke:none;" d="M471 180L472 181L471 180z"/>
<path style="fill:#fcd39f; stroke:none;" d="M728 180L729 181L728 180z"/>
<path style="fill:#fcbb6c; stroke:none;" d="M470 181L471 182L470 181z"/>
<path style="fill:#fcd39f; stroke:none;" d="M729 181L730 182L729 181z"/>
<path style="fill:#fde0bc; stroke:none;" d="M468 182L469 183L468 182z"/>
<path style="fill:#fcbb6c; stroke:none;" d="M730 182L731 183L730 182z"/>
<path style="fill:#fde0bc; stroke:none;" d="M467 183L468 184L467 183z"/>
<path style="fill:#fcbb6c; stroke:none;" d="M731 183L732 184L731 183z"/>
<path style="fill:#fde0bc; stroke:none;" d="M466 184L467 185L466 184M733 184L734 185L733 184z"/>
<path style="fill:#fcd39f; stroke:none;" d="M465 185L466 186L465 185z"/>
<path style="fill:#fde0bc; stroke:none;" d="M734 185L735 186L734 185z"/>
<path style="fill:#fcd39f; stroke:none;" d="M464 186L465 187L464 186z"/>
<path style="fill:#fde0bc; stroke:none;" d="M735 186L736 187L735 186z"/>
<path style="fill:#fcbb6c; stroke:none;" d="M463 187L464 188L463 187z"/>
<path style="fill:#fcd39f; stroke:none;" d="M736 187L737 188L736 187z"/>
<path style="fill:#fcbb6c; stroke:none;" d="M462 188L463 189L462 188z"/>
<path style="fill:#fcd39f; stroke:none;" d="M737 188L738 189L737 188z"/>
<path style="fill:#fcbb6c; stroke:none;" d="M461 189L462 190L461 189z"/>
<path style="fill:#fcd39f; stroke:none;" d="M738 189L739 190L738 189z"/>
<path style="fill:#fcbb6c; stroke:none;" d="M460 190L461 191L460 190z"/>
<path style="fill:#fcd39f; stroke:none;" d="M739 190L740 191L739 190z"/>
<path style="fill:#fcbb6c; stroke:none;" d="M459 191L460 192L459 191z"/>
<path style="fill:#fcd39f; stroke:none;" d="M740 191L741 192L740 191z"/>
<path style="fill:#fcbb6c; stroke:none;" d="M458 192L459 193L458 192z"/>
<path style="fill:#fcd39f; stroke:none;" d="M741 192L742 193L741 192z"/>
<path style="fill:#fcbb6c; stroke:none;" d="M457 193L458 194L457 193z"/>
<path style="fill:#fcd39f; stroke:none;" d="M742 193L743 194L742 193z"/>
<path style="fill:#fcbb6c; stroke:none;" d="M456 194L457 195L456 194z"/>
<path style="fill:#fcd39f; stroke:none;" d="M743 194L744 195L743 194z"/>
<path style="fill:#fcbb6c; stroke:none;" d="M455 195L456 196L455 195z"/>
<path style="fill:#fcd39f; stroke:none;" d="M744 195L745 196L744 195z"/>
<path style="fill:#fcbb6c; stroke:none;" d="M454 196L455 197L454 196z"/>
<path style="fill:#fcd39f; stroke:none;" d="M745 196L746 197L745 196z"/>
<path style="fill:#fcbb6c; stroke:none;" d="M453 197L454 198L453 197z"/>
<path style="fill:#fcd39f; stroke:none;" d="M746 197L747 198L746 197z"/>
<path style="fill:#fcbb6c; stroke:none;" d="M452 198L453 199L452 198z"/>
<path style="fill:#fcd39f; stroke:none;" d="M747 198L748 199L747 198M451 199L452 200L451 199z"/>
<path style="fill:#fde0bc; stroke:none;" d="M748 199L749 200L748 199z"/>
<path style="fill:#fcd39f; stroke:none;" d="M450 200L451 201L450 200z"/>
<path style="fill:#fde0bc; stroke:none;" d="M749 200L750 201L749 200M449 201L450 202L449 201M750 201L751 202L750 201M448 202L449 203L448 202M447 203L448 204L447 203z"/>
<path style="fill:#fcbb6c; stroke:none;" d="M751 203L752 204L751 203M752 204L753 205L752 204M446 205L447 206L446 205M753 205L754 206L753 205M445 206L446 207L445 206z"/>
<path style="fill:#fcd39f; stroke:none;" d="M754 206L755 207L754 206M444 207L445 208L444 207z"/>
<path style="fill:#fde0bc; stroke:none;" d="M755 207L756 208L755 207M443 208L444 209L443 208M442 209L443 210L442 209z"/>
<path style="fill:#fcbb6c; stroke:none;" d="M756 209L757 210L756 209M442 210L443 211L442 210M757 210L758 211L757 210M441 211L442 212L441 211z"/>
<path style="fill:#fcd39f; stroke:none;" d="M758 211L759 212L758 211M440 212L441 213L440 212z"/>
<path style="fill:#fde0bc; stroke:none;" d="M759 212L760 213L759 212M439 213L440 214L439 213z"/>
<path style="fill:#fcbb6c; stroke:none;" d="M760 214L761 215L760 214M438 215L439 216L438 215z"/>
<path style="fill:#fcd39f; stroke:none;" d="M761 215L762 216L761 215M437 216L438 217L437 216z"/>
<path style="fill:#fde0bc; stroke:none;" d="M762 216L763 217L762 216M436 217L437 218L436 217z"/>
<path style="fill:#fcbb6c; stroke:none;" d="M763 218L764 219L763 218M435 219L436 220L435 219z"/>
<path style="fill:#fcd39f; stroke:none;" d="M764 219L765 220L764 219z"/>
<path style="fill:#fde0bc; stroke:none;" d="M434 220L435 221L434 220z"/>
<path style="fill:#fcd39f; stroke:none;" d="M481 220L481 392L481 437L482.028 453.397L493 455L522 455L522 454L482 454L482 289L482 242L481 220z"/>
<path style="fill:#ffffff; stroke:none;" d="M482 220L482 454L522 454L522 289C530.195 296.49 535.864 307.796 542 317L576.667 369C582.548 377.822 589.448 394.119 599 399L638.026 341L661 306L630 306C625.902 306 619.876 304.92 616.185 307.028C609.178 311.03 602.361 325.81 599 333C580.358 308.744 564.666 280.939 548.424 255C542.647 245.774 534.884 226.808 525.621 221.028C522.337 218.979 516.705 220 513 220L482 220z"/>
<path style="fill:#fcbb6c; stroke:none;" d="M526 220L527 221L526 220M664 220L665 221L664 220z"/>
<path style="fill:#ffffff; stroke:none;" d="M632 274L674 274L674 420L658 420L658 454L731 454L731 420L716.603 418.397L715 406L715 373L715 220L681 220L666.326 220.603L655.808 235L632 274z"/>
<path style="fill:#fcd39f; stroke:none;" d="M715 220L715 419L716 419L716 279L716 239L715 220z"/>
<path style="fill:#fde0bc; stroke:none;" d="M664 221L665 222L664 221z"/>
<path style="fill:#fcbb6c; stroke:none;" d="M765 221L766 222L765 221M433 222L434 223L433 222z"/>
<path style="fill:#fcd39f; stroke:none;" d="M527 222L528 223L527 222M663 222L664 223L663 222M766 222L767 223L766 222M432 223L433 224L432 223z"/>
<path style="fill:#fcbb6c; stroke:none;" d="M528 223L529 224L528 223M662 223L663 224L662 223z"/>
<path style="fill:#fde0bc; stroke:none;" d="M767 223L768 224L767 223M528 224L529 225L528 224M662 224L663 225L662 224z"/>
<path style="fill:#fcbb6c; stroke:none;" d="M767 224L768 225L767 224M431 225L432 226L431 225z"/>
<path style="fill:#fcd39f; stroke:none;" d="M529 225L530 226L529 225z"/>
<path style="fill:#fcbb6c; stroke:none;" d="M661 225L662 226L661 225z"/>
<path style="fill:#fcd39f; stroke:none;" d="M768 225L769 226L768 225z"/>
<path style="fill:#fde0bc; stroke:none;" d="M430 226L431 227L430 226z"/>
<path style="fill:#fcbb6c; stroke:none;" d="M530 226L531 227L530 226z"/>
<path style="fill:#fde0bc; stroke:none;" d="M530 227L531 228L530 227z"/>
<path style="fill:#fcd39f; stroke:none;" d="M660 227L661 228L660 227z"/>
<path style="fill:#fcbb6c; stroke:none;" d="M769 227L770 228L769 227M429 228L430 229L429 228z"/>
<path style="fill:#fcd39f; stroke:none;" d="M531 228L532 229L531 228z"/>
<path style="fill:#fcbb6c; stroke:none;" d="M659 228L660 229L659 228z"/>
<path style="fill:#fde0bc; stroke:none;" d="M770 228L771 229L770 228M428 229L429 230L428 229z"/>
<path style="fill:#fcbb6c; stroke:none;" d="M532 229L533 230L532 229z"/>
<path style="fill:#fde0bc; stroke:none;" d="M659 229L660 230L659 229z"/>
<path style="fill:#fcbb6c; stroke:none;" d="M428 230L429 231L428 230z"/>
<path style="fill:#fde0bc; stroke:none;" d="M532 230L533 231L532 230z"/>
<path style="fill:#fcd39f; stroke:none;" d="M658 230L659 231L658 230z"/>
<path style="fill:#fcbb6c; stroke:none;" d="M771 230L772 231L771 230z"/>
<path style="fill:#fcd39f; stroke:none;" d="M427 231L428 232L427 231z"/>
<path style="fill:#fcbb6c; stroke:none;" d="M533 231L534 232L533 231z"/>
<path style="fill:#fde0bc; stroke:none;" d="M772 231L773 232L772 231M657 232L658 233L657 232z"/>
<path style="fill:#fcbb6c; stroke:none;" d="M772 232L773 233L772 232M426 233L427 234L426 233z"/>
<path style="fill:#fde0bc; stroke:none;" d="M534 233L535 234L534 233z"/>
<path style="fill:#fcbb6c; stroke:none;" d="M656 233L657 234L656 233z"/>
<path style="fill:#fcd39f; stroke:none;" d="M773 233L774 234L773 233z"/>
<path style="fill:#fde0bc; stroke:none;" d="M425 234L426 235L425 234z"/>
<path style="fill:#fcbb6c; stroke:none;" d="M535 234L536 235L535 234M425 235L426 236L425 235z"/>
<path style="fill:#fcd39f; stroke:none;" d="M655 235L656 236L655 235M774 235L775 236L774 235z"/>
<path style="fill:#fde0bc; stroke:none;" d="M424 236L425 237L424 236M536 236L537 237L536 236z"/>
<path style="fill:#fcbb6c; stroke:none;" d="M654 236L655 237L654 236M537 237L538 238L537 237z"/>
<path style="fill:#fde0bc; stroke:none;" d="M654 237L655 238L654 237z"/>
<path style="fill:#fcbb6c; stroke:none;" d="M775 237L776 238L775 237z"/>
<path style="fill:#fcd39f; stroke:none;" d="M423 238L424 239L423 238M653 238L654 239L653 238z"/>
<path style="fill:#fde0bc; stroke:none;" d="M776 238L777 239L776 238z"/>
<path style="fill:#fcd39f; stroke:none;" d="M538 239L539 240L538 239z"/>
<path style="fill:#fcbb6c; stroke:none;" d="M776 239L777 240L776 239z"/>
<path style="fill:#fcd39f; stroke:none;" d="M422 240L423 241L422 240z"/>
<path style="fill:#fcbb6c; stroke:none;" d="M539 240L540 241L539 240z"/>
<path style="fill:#fde0bc; stroke:none;" d="M652 240L653 241L652 240M777 240L778 241L777 240M539 241L540 242L539 241z"/>
<path style="fill:#fcbb6c; stroke:none;" d="M651 241L652 242L651 241M777 241L778 242L777 241M421 242L422 243L421 242z"/>
<path style="fill:#fcd39f; stroke:none;" d="M540 242L541 243L540 242z"/>
<path style="fill:#fde0bc; stroke:none;" d="M778 242L779 243L778 242M420 243L421 244L420 243z"/>
<path style="fill:#fcbb6c; stroke:none;" d="M541 243L542 244L541 243z"/>
<path style="fill:#fcd39f; stroke:none;" d="M650 243L651 244L650 243z"/>
<path style="fill:#fcbb6c; stroke:none;" d="M778 243L779 244L778 243M420 244L421 245L420 244z"/>
<path style="fill:#fde0bc; stroke:none;" d="M541 244L542 245L541 244z"/>
<path style="fill:#fcbb6c; stroke:none;" d="M649 244L650 245L649 244z"/>
<path style="fill:#fcd39f; stroke:none;" d="M779 244L780 245L779 244z"/>
<path style="fill:#fde0bc; stroke:none;" d="M419 245L420 246L419 245z"/>
<path style="fill:#fcbb6c; stroke:none;" d="M542 245L543 246L542 245z"/>
<path style="fill:#fde0bc; stroke:none;" d="M649 245L650 246L649 245z"/>
<path style="fill:#fcbb6c; stroke:none;" d="M779 245L780 246L779 245M419 246L420 247L419 246M648 246L649 247L648 246z"/>
<path style="fill:#fcd39f; stroke:none;" d="M780 246L781 247L780 246z"/>
<path style="fill:#fde0bc; stroke:none;" d="M418 247L419 248L418 247M543 247L544 248L543 247z"/>
<path style="fill:#fcbb6c; stroke:none;" d="M780 247L781 248L780 247M418 248L419 249L418 248M544 248L545 249L544 248z"/>
<path style="fill:#fde0bc; stroke:none;" d="M647 248L648 249L647 248M781 248L782 249L781 248z"/>
<path style="fill:#fcbb6c; stroke:none;" d="M646 249L647 250L646 249M781 249L782 250L781 249z"/>
<path style="fill:#fcd39f; stroke:none;" d="M417 250L418 251L417 250z"/>
<path style="fill:#fde0bc; stroke:none;" d="M545 250L546 251L545 250M646 250L647 251L646 250M782 250L783 251L782 250z"/>
<path style="fill:#fcbb6c; stroke:none;" d="M546 251L547 252L546 251z"/>
<path style="fill:#fcd39f; stroke:none;" d="M645 251L646 252L645 251z"/>
<path style="fill:#fcbb6c; stroke:none;" d="M782 251L783 252L782 251z"/>
<path style="fill:#fcd39f; stroke:none;" d="M416 252L417 253L416 252z"/>
<path style="fill:#fcbb6c; stroke:none;" d="M644 252L645 253L644 252z"/>
<path style="fill:#fde0bc; stroke:none;" d="M783 252L784 253L783 252z"/>
<path style="fill:#fcd39f; stroke:none;" d="M547 253L548 254L547 253z"/>
<path style="fill:#fde0bc; stroke:none;" d="M644 253L645 254L644 253z"/>
<path style="fill:#fcbb6c; stroke:none;" d="M783 253L784 254L783 253z"/>
<path style="fill:#fde0bc; stroke:none;" d="M415 254L416 255L415 254z"/>
<path style="fill:#fcbb6c; stroke:none;" d="M548 254L549 255L548 254M643 254L644 255L643 254M415 255L416 256L415 255z"/>
<path style="fill:#fde0bc; stroke:none;" d="M548 255L549 256L548 255z"/>
<path style="fill:#fcd39f; stroke:none;" d="M784 255L785 256L784 255z"/>
<path style="fill:#fde0bc; stroke:none;" d="M414 256L415 257L414 256z"/>
<path style="fill:#fcd39f; stroke:none;" d="M549 256L550 257L549 256M642 256L643 257L642 256z"/>
<path style="fill:#fcbb6c; stroke:none;" d="M414 257L415 258L414 257M550 257L551 258L550 257M641 257L642 258L641 257z"/>
<path style="fill:#fde0bc; stroke:none;" d="M785 257L786 258L785 257M550 258L551 259L550 258M641 258L642 259L641 258z"/>
<path style="fill:#fcbb6c; stroke:none;" d="M785 258L786 259L785 258z"/>
<path style="fill:#fcd39f; stroke:none;" d="M413 259L414 260L413 259M551 259L552 260L551 259M640 259L641 260L640 259z"/>
<path style="fill:#fde0bc; stroke:none;" d="M786 259L787 260L786 259z"/>
<path style="fill:#fcbb6c; stroke:none;" d="M413 260L414 261L413 260M639 260L640 261L639 260M786 260L787 261L786 260z"/>
<path style="fill:#fde0bc; stroke:none;" d="M412 261L413 262L412 261M552 261L553 262L552 261M639 261L640 262L639 261z"/>
<path style="fill:#fcbb6c; stroke:none;" d="M412 262L413 263L412 262M553 262L554 263L553 262M638 262L639 263L638 262z"/>
<path style="fill:#fcd39f; stroke:none;" d="M787 262L788 263L787 262z"/>
<path style="fill:#fcbb6c; stroke:none;" d="M787 263L788 264L787 263z"/>
<path style="fill:#fcd39f; stroke:none;" d="M411 264L412 265L411 264z"/>
<path style="fill:#fde0bc; stroke:none;" d="M554 264L555 265L554 264z"/>
<path style="fill:#fcd39f; stroke:none;" d="M637 264L638 265L637 264z"/>
<path style="fill:#fde0bc; stroke:none;" d="M788 264L789 265L788 264z"/>
<path style="fill:#fcbb6c; stroke:none;" d="M411 265L412 266L411 265M555 265L556 266L555 265M636 265L637 266L636 265z"/>
<path style="fill:#fcd39f; stroke:none;" d="M788 265L789 266L788 265z"/>
<path style="fill:#fde0bc; stroke:none;" d="M410 266L411 267L410 266M636 266L637 267L636 266z"/>
<path style="fill:#fcd39f; stroke:none;" d="M410 267L411 268L410 267M556 267L557 268L556 267M635 267L636 268L635 267z"/>
<path style="fill:#fde0bc; stroke:none;" d="M789 267L790 268L789 267z"/>
<path style="fill:#fcbb6c; stroke:none;" d="M410 268L411 269L410 268M557 268L558 269L557 268M789 268L790 269L789 268z"/>
<path style="fill:#fde0bc; stroke:none;" d="M409 269L410 270L409 269M557 269L558 270L557 269M634 269L635 270L634 269z"/>
<path style="fill:#fcd39f; stroke:none;" d="M409 270L410 271L409 270M558 270L559 271L558 270z"/>
<path style="fill:#fcbb6c; stroke:none;" d="M633 270L634 271L633 270z"/>
<path style="fill:#fde0bc; stroke:none;" d="M790 270L791 271L790 270z"/>
<path style="fill:#fcbb6c; stroke:none;" d="M559 271L560 272L559 271M790 271L791 272L790 271z"/>
<path style="fill:#fde0bc; stroke:none;" d="M408 272L409 273L408 272M559 272L560 273L559 272z"/>
<path style="fill:#fcd39f; stroke:none;" d="M632 272L633 273L632 272M408 273L409 274L408 273M560 273L561 274L560 273z"/>
<path style="fill:#fcbb6c; stroke:none;" d="M631 273L632 274L631 273z"/>
<path style="fill:#fde0bc; stroke:none;" d="M791 273L792 274L791 273z"/>
<path style="fill:#fcbb6c; stroke:none;" d="M408 274L409 275L408 274M632 274L632 275L673 275L673 419L674 386L674 310L674 285L672.972 275.603L662 274L632 274z"/>
<path style="fill:#fcd39f; stroke:none;" d="M673 274L674 275L673 274z"/>
<path style="fill:#fcbb6c; stroke:none;" d="M791 274L792 275L791 274z"/>
<path style="fill:#fde0bc; stroke:none;" d="M407 275L408 276L407 275M561 275L562 276L561 275z"/>
<path style="fill:#fcd39f; stroke:none;" d="M407 276L408 277L407 276z"/>
<path style="fill:#fcbb6c; stroke:none;" d="M562 276L563 277L562 276z"/>
<path style="fill:#fde0bc; stroke:none;" d="M792 276L793 277L792 276z"/>
<path style="fill:#fcbb6c; stroke:none;" d="M407 277L408 278L407 277z"/>
<path style="fill:#fcd39f; stroke:none;" d="M792 277L793 278L792 277z"/>
<path style="fill:#fde0bc; stroke:none;" d="M563 278L564 279L563 278z"/>
<path style="fill:#fcbb6c; stroke:none;" d="M792 278L793 279L792 278z"/>
<path style="fill:#fde0bc; stroke:none;" d="M406 279L407 280L406 279z"/>
<path style="fill:#fcbb6c; stroke:none;" d="M564 279L565 280L564 279M406 280L407 281L406 280z"/>
<path style="fill:#fcd39f; stroke:none;" d="M793 280L794 281L793 280M565 281L566 282L565 281z"/>
<path style="fill:#fcbb6c; stroke:none;" d="M793 281L794 282L793 281z"/>
<path style="fill:#fde0bc; stroke:none;" d="M405 282L406 283L405 282z"/>
<path style="fill:#fcbb6c; stroke:none;" d="M566 282L567 283L566 282z"/>
<path style="fill:#fcd39f; stroke:none;" d="M405 283L406 284L405 283z"/>
<path style="fill:#fde0bc; stroke:none;" d="M566 283L567 284L566 283M794 283L795 284L794 283z"/>
<path style="fill:#fcbb6c; stroke:none;" d="M405 284L406 285L405 284z"/>
<path style="fill:#fcd39f; stroke:none;" d="M567 284L568 285L567 284M794 284L795 285L794 284z"/>
<path style="fill:#fcbb6c; stroke:none;" d="M568 285L569 286L568 285M794 285L795 286L794 285z"/>
<path style="fill:#fde0bc; stroke:none;" d="M404 286L405 287L404 286M568 286L569 287L568 286z"/>
<path style="fill:#fcd39f; stroke:none;" d="M404 287L405 288L404 287M569 287L570 288L569 287z"/>
<path style="fill:#fde0bc; stroke:none;" d="M795 287L796 288L795 287z"/>
<path style="fill:#fcbb6c; stroke:none;" d="M404 288L405 289L404 288z"/>
<path style="fill:#fcd39f; stroke:none;" d="M795 288L796 289L795 288z"/>
<path style="fill:#fde0bc; stroke:none;" d="M522 289L522 454L523 454L523 338C523 324.224 527.306 301.645 522 289z"/>
<path style="fill:#fcd39f; stroke:none;" d="M523 289L524 290L523 289z"/>
<path style="fill:#fde0bc; stroke:none;" d="M570 289L571 290L570 289z"/>
<path style="fill:#fcbb6c; stroke:none;" d="M795 289L796 290L795 289z"/>
<path style="fill:#fde0bc; stroke:none;" d="M403 290L404 291L403 290z"/>
<path style="fill:#fcbb6c; stroke:none;" d="M571 290L572 291L571 290z"/>
<path style="fill:#fcd39f; stroke:none;" d="M403 291L404 292L403 291z"/>
<path style="fill:#fcbb6c; stroke:none;" d="M524 291L525 292L524 291z"/>
<path style="fill:#fde0bc; stroke:none;" d="M796 291L797 292L796 291z"/>
<path style="fill:#fcbb6c; stroke:none;" d="M403.333 292.667L403.667 293.333L403.333 292.667z"/>
<path style="fill:#fcd39f; stroke:none;" d="M525 292L526 293L525 292z"/>
<path style="fill:#fde0bc; stroke:none;" d="M572 292L573 293L572 292z"/>
<path style="fill:#fcd39f; stroke:none;" d="M796 292L797 293L796 292z"/>
<path style="fill:#fcbb6c; stroke:none;" d="M573 293L574 294L573 293M796.333 293.667L796.667 294.333L796.333 293.667M526 294L527 295L526 294z"/>
<path style="fill:#fde0bc; stroke:none;" d="M402 295L403 296L402 295z"/>
<path style="fill:#fcd39f; stroke:none;" d="M527 295L528 296L527 295M574 295L575 296L574 295M402 296L403 297L402 296z"/>
<path style="fill:#fde0bc; stroke:none;" d="M528 296L529 297L528 296z"/>
<path style="fill:#fcbb6c; stroke:none;" d="M575 296L576 297L575 296z"/>
<path style="fill:#fde0bc; stroke:none;" d="M797 296L798 297L797 296z"/>
<path style="fill:#fcbb6c; stroke:none;" d="M402.333 297.667L402.667 298.333L402.333 297.667M528 297L529 298L528 297z"/>
<path style="fill:#fde0bc; stroke:none;" d="M575 297L576 298L575 297z"/>
<path style="fill:#fcd39f; stroke:none;" d="M797 297L798 298L797 297M529 298L530 299L529 298M576 298L577 299L576 298z"/>
<path style="fill:#fcbb6c; stroke:none;" d="M797.333 298.667L797.667 299.333L797.333 298.667z"/>
<path style="fill:#fde0bc; stroke:none;" d="M530 299L531 300L530 299z"/>
<path style="fill:#fcbb6c; stroke:none;" d="M577 299L578 300L577 299z"/>
<path style="fill:#fde0bc; stroke:none;" d="M401.333 300.667L401.667 301.333L401.333 300.667z"/>
<path style="fill:#fcbb6c; stroke:none;" d="M530 300L531 301L530 300z"/>
<path style="fill:#fde0bc; stroke:none;" d="M577 300L578 301L577 300z"/>
<path style="fill:#fcd39f; stroke:none;" d="M531 301L532 302L531 301M578 301L579 302L578 301M401 302L402 303L401 302z"/>
<path style="fill:#fde0bc; stroke:none;" d="M532 302L533 303L532 302z"/>
<path style="fill:#fcbb6c; stroke:none;" d="M579 302L580 303L579 302z"/>
<path style="fill:#fde0bc; stroke:none;" d="M798 302L799 303L798 302z"/>
<path style="fill:#fcbb6c; stroke:none;" d="M401.333 303.667L401.667 304.333L401.333 303.667M532 303L533 304L532 303z"/>
<path style="fill:#fde0bc; stroke:none;" d="M579 303L580 304L579 303z"/>
<path style="fill:#fcd39f; stroke:none;" d="M798 303L799 304L798 303M533 304L534 305L533 304z"/>
<path style="fill:#fcbb6c; stroke:none;" d="M580 304L581 305L580 304M798 304L798 307L799 307L798 304z"/>
<path style="fill:#fde0bc; stroke:none;" d="M534 305L535 306L534 305M616 305L616 306L662 306C650.061 300.99 629.003 305 616 305M400.333 306.667L400.667 307.333L400.333 306.667z"/>
<path style="fill:#fcbb6c; stroke:none;" d="M534 306L535 307L534 306z"/>
<path style="fill:#fde0bc; stroke:none;" d="M581 306L582 307L581 306M615 306L616 307L615 306z"/>
<path style="fill:#fcd39f; stroke:none;" d="M661 306L662 307L661 306M535 307L536 308L535 307z"/>
<path style="fill:#fcbb6c; stroke:none;" d="M582 307L583 308L582 307M614 307L615 308L614 307z"/>
<path style="fill:#fde0bc; stroke:none;" d="M660 307L661 308L660 307z"/>
<path style="fill:#fcd39f; stroke:none;" d="M400.333 308.667L400.667 309.333L400.333 308.667z"/>
<path style="fill:#fde0bc; stroke:none;" d="M536 308L537 309L536 308z"/>
<path style="fill:#fcbb6c; stroke:none;" d="M660 308L661 309L660 308z"/>
<path style="fill:#fde0bc; stroke:none;" d="M799.333 308.667L799.667 309.333L799.333 308.667z"/>
<path style="fill:#fcbb6c; stroke:none;" d="M536 309L537 310L536 309z"/>
<path style="fill:#fcd39f; stroke:none;" d="M583 309L584 310L583 309M613 309L614 310L613 309M659 309L660 310L659 309z"/>
<path style="fill:#fcbb6c; stroke:none;" d="M400 310L400 313L401 313L400 310z"/>
<path style="fill:#fcd39f; stroke:none;" d="M537 310L538 311L537 310z"/>
<path style="fill:#fcbb6c; stroke:none;" d="M584 310L585 311L584 310M612 310L613 311L612 310z"/>
<path style="fill:#fde0bc; stroke:none;" d="M658 310L659 311L658 310z"/>
<path style="fill:#fcd39f; stroke:none;" d="M799.333 310.667L799.667 311.333L799.333 310.667z"/>
<path style="fill:#fde0bc; stroke:none;" d="M538 311L539 312L538 311M584 311L585 312L584 311z"/>
<path style="fill:#fcbb6c; stroke:none;" d="M658 311L659 312L658 311M538 312L539 313L538 312z"/>
<path style="fill:#fcd39f; stroke:none;" d="M585 312L586 313L585 312M611 312L612 313L611 312M657 312L658 313L657 312z"/>
<path style="fill:#fcbb6c; stroke:none;" d="M799 312L799 315L800 315L799 312z"/>
<path style="fill:#fcd39f; stroke:none;" d="M539 313L540 314L539 313z"/>
<path style="fill:#fcbb6c; stroke:none;" d="M586 313L587 314L586 313M610 313L611 314L610 313z"/>
<path style="fill:#fde0bc; stroke:none;" d="M656 313L657 314L656 313M540 314L541 315L540 314M586 314L587 315L586 314M610 314L611 315L610 314z"/>
<path style="fill:#fcbb6c; stroke:none;" d="M656 314L657 315L656 314z"/>
<path style="fill:#fde0bc; stroke:none;" d="M399 315L399 318L400 318L399 315z"/>
<path style="fill:#fcbb6c; stroke:none;" d="M540 315L541 316L540 315z"/>
<path style="fill:#fcd39f; stroke:none;" d="M587 315L588 316L587 315M609 315L610 316L609 315M655 315L656 316L655 315M541 316L542 317L541 316z"/>
<path style="fill:#fcbb6c; stroke:none;" d="M588 316L589 317L588 316z"/>
<path style="fill:#fde0bc; stroke:none;" d="M654 316L655 317L654 316M542 317L543 318L542 317M588 317L589 318L588 317M608 317L609 318L608 317M800 317L800 321L801 321L800 317z"/>
<path style="fill:#fcd39f; stroke:none;" d="M399.333 318.667L399.667 319.333L399.333 318.667z"/>
<path style="fill:#fcbb6c; stroke:none;" d="M542 318L543 319L542 318M589 318L590 319L589 318M607 318L608 319L607 318M653 318L654 319L653 318z"/>
<path style="fill:#fcd39f; stroke:none;" d="M543 319L544 320L543 319z"/>
<path style="fill:#fde0bc; stroke:none;" d="M652 319L653 320L652 319z"/>
<path style="fill:#fcbb6c; stroke:none;" d="M399 320L399 325L400 325L399 320z"/>
<path style="fill:#fde0bc; stroke:none;" d="M544 320L545 321L544 320M590 320L591 321L590 320M606 320L607 321L606 320z"/>
<path style="fill:#fcbb6c; stroke:none;" d="M544 321L545 322L544 321M591 321L592 322L591 321M605 321L606 322L605 321M651 321L652 322L651 321z"/>
<path style="fill:#fcd39f; stroke:none;" d="M800 321L800 324L801 324L800 321M545 322L546 323L545 322z"/>
<path style="fill:#fde0bc; stroke:none;" d="M650 322L651 323L650 322M546 323L547 324L546 323M592 323L593 324L592 323z"/>
<path style="fill:#fcd39f; stroke:none;" d="M604 323L605 324L604 323z"/>
<path style="fill:#fcbb6c; stroke:none;" d="M546 324L547 325L546 324M593 324L594 325L593 324M603 324L604 325L603 324M649 324L650 325L649 324M800 324L800 347L801 347L800 324z"/>
<path style="fill:#fcd39f; stroke:none;" d="M547 325L548 326L547 325z"/>
<path style="fill:#fde0bc; stroke:none;" d="M593 325L594 326L593 325M648 325L649 326L648 325M548 326L549 327L548 326z"/>
<path style="fill:#fcd39f; stroke:none;" d="M594 326L595 327L594 326M602 326L603 327L602 326z"/>
<path style="fill:#fcbb6c; stroke:none;" d="M548 327L549 328L548 327M595 327L596 328L595 327M601 327L602 328L601 327M647 327L648 328L647 327z"/>
<path style="fill:#fcd39f; stroke:none;" d="M549 328L550 329L549 328z"/>
<path style="fill:#fde0bc; stroke:none;" d="M595 328L596 329L595 328M601 328L602 329L601 328M646 328L647 329L646 328M550 329L551 330L550 329z"/>
<path style="fill:#fcd39f; stroke:none;" d="M596 329L597 330L596 329M600 329L601 330L600 329z"/>
<path style="fill:#fcbb6c; stroke:none;" d="M550 330L551 331L550 330M597 330L598 331L597 330M599 330L600 331L599 330M645 330L646 331L645 330z"/>
<path style="fill:#fcd39f; stroke:none;" d="M551 331L552 332L551 331z"/>
<path style="fill:#fde0bc; stroke:none;" d="M597 331L598 332L597 331M599 331L600 332L599 331M644 331L645 332L644 331M398 332L398 338L399 338L398 332M552 332L553 333L552 332M598 332L599 333L598 332z"/>
<path style="fill:#fcbb6c; stroke:none;" d="M552 333L553 334L552 333M643 333L644 334L643 333z"/>
<path style="fill:#fcd39f; stroke:none;" d="M553 334L554 335L553 334M642 334L643 335L642 334z"/>
<path style="fill:#fde0bc; stroke:none;" d="M554 335L555 336L554 335z"/>
<path style="fill:#fcbb6c; stroke:none;" d="M554 336L555 337L554 336M641 336L642 337L641 336z"/>
<path style="fill:#fcd39f; stroke:none;" d="M555 337L556 338L555 337M640 337L641 338L640 337z"/>
<path style="fill:#fde0bc; stroke:none;" d="M556 338L557 339L556 338M639 338L640 339L639 338z"/>
<path style="fill:#fcbb6c; stroke:none;" d="M556 339L557 340L556 339M639 339L640 340L639 339z"/>
<path style="fill:#fcd39f; stroke:none;" d="M557 340L558 341L557 340M638 340L639 341L638 340z"/>
<path style="fill:#fde0bc; stroke:none;" d="M558 341L559 342L558 341M637 341L638 342L637 341z"/>
<path style="fill:#fcbb6c; stroke:none;" d="M558 342L559 343L558 342M637 342L638 343L637 342z"/>
<path style="fill:#fcd39f; stroke:none;" d="M559 343L560 344L559 343M636 343L637 344L636 343z"/>
<path style="fill:#fde0bc; stroke:none;" d="M560 344L561 345L560 344M635 344L636 345L635 344z"/>
<path style="fill:#fcbb6c; stroke:none;" d="M399 345L399 350L400 350L399 345M560 345L561 346L560 345M635 345L636 346L635 345z"/>
<path style="fill:#fcd39f; stroke:none;" d="M561 346L562 347L561 346M634 346L635 347L634 346z"/>
<path style="fill:#fde0bc; stroke:none;" d="M562 347L563 348L562 347M633 347L634 348L633 347z"/>
<path style="fill:#fcd39f; stroke:none;" d="M800 347L800 350L801 350L800 347z"/>
<path style="fill:#fcbb6c; stroke:none;" d="M562 348L563 349L562 348M633 348L634 349L633 348z"/>
<path style="fill:#fcd39f; stroke:none;" d="M563 349L564 350L563 349M632 349L633 350L632 349M399.333 350.667L399.667 351.333L399.333 350.667z"/>
<path style="fill:#fde0bc; stroke:none;" d="M564 350L565 351L564 350M631 350L632 351L631 350M800 350L800 353L801 353L800 350z"/>
<path style="fill:#fcbb6c; stroke:none;" d="M564 351L565 352L564 351M631 351L632 352L631 351z"/>
<path style="fill:#fde0bc; stroke:none;" d="M399 352L399 356L400 356L399 352z"/>
<path style="fill:#fcd39f; stroke:none;" d="M565 352L566 353L565 352M630 352L631 353L630 352z"/>
<path style="fill:#fde0bc; stroke:none;" d="M566 353L567 354L566 353M629 353L630 354L629 353z"/>
<path style="fill:#fcbb6c; stroke:none;" d="M566 354L567 355L566 354M629 354L630 355L629 354z"/>
<path style="fill:#fcd39f; stroke:none;" d="M567 355L568 356L567 355M628 355L629 356L628 355z"/>
<path style="fill:#fcbb6c; stroke:none;" d="M799 355L799 358L800 358L799 355z"/>
<path style="fill:#fde0bc; stroke:none;" d="M568 356L569 357L568 356M627 356L628 357L627 356z"/>
<path style="fill:#fcbb6c; stroke:none;" d="M568 357L569 358L568 357M627 357L628 358L627 357M400.333 358.667L400.667 359.333L400.333 358.667z"/>
<path style="fill:#fcd39f; stroke:none;" d="M569 358L570 359L569 358M626 358L627 359L626 358M799.333 358.667L799.667 359.333L799.333 358.667z"/>
<path style="fill:#fde0bc; stroke:none;" d="M570 359L571 360L570 359M625 359L626 360L625 359z"/>
<path style="fill:#fcd39f; stroke:none;" d="M400.333 360.667L400.667 361.333L400.333 360.667z"/>
<path style="fill:#fcbb6c; stroke:none;" d="M570 360L571 361L570 360z"/>
<path style="fill:#fde0bc; stroke:none;" d="M799.333 360.667L799.667 361.333L799.333 360.667z"/>
<path style="fill:#fcd39f; stroke:none;" d="M571 361L572 362L571 361z"/>
<path style="fill:#fcbb6c; stroke:none;" d="M624 361L625 362L624 361z"/>
<path style="fill:#fde0bc; stroke:none;" d="M400.333 362.667L400.667 363.333L400.333 362.667M572 362L573 363L572 362M623 362L624 363L623 362z"/>
<path style="fill:#fcbb6c; stroke:none;" d="M572 363L573 364L572 363M798 363L798 366L799 366L798 363z"/>
<path style="fill:#fcd39f; stroke:none;" d="M573 364L574 365L573 364z"/>
<path style="fill:#fcbb6c; stroke:none;" d="M622 364L623 365L622 364M401.333 365.667L401.667 366.333L401.333 365.667z"/>
<path style="fill:#fde0bc; stroke:none;" d="M574 365L575 366L574 365M621 365L622 366L621 365z"/>
<path style="fill:#fcbb6c; stroke:none;" d="M574 366L575 367L574 366z"/>
<path style="fill:#fcd39f; stroke:none;" d="M798 366L799 367L798 366M401.333 367.667L401.667 368.333L401.333 367.667M575 367L576 368L575 367z"/>
<path style="fill:#fcbb6c; stroke:none;" d="M620 367L621 368L620 367z"/>
<path style="fill:#fde0bc; stroke:none;" d="M798.333 367.667L798.667 368.333L798.333 367.667M576 368L577 369L576 368M619 368L620 369L619 368M401 369L402 370L401 369z"/>
<path style="fill:#fcbb6c; stroke:none;" d="M576 369L577 370L576 369z"/>
<path style="fill:#fcd39f; stroke:none;" d="M577 370L578 371L577 370z"/>
<path style="fill:#fcbb6c; stroke:none;" d="M618 370L619 371L618 370M797.333 370.667L797.667 371.333L797.333 370.667M402.333 371.667L402.667 372.333L402.333 371.667z"/>
<path style="fill:#fde0bc; stroke:none;" d="M578 371L579 372L578 371M617 371L618 372L617 371z"/>
<path style="fill:#fcbb6c; stroke:none;" d="M578 372L579 373L578 372z"/>
<path style="fill:#fcd39f; stroke:none;" d="M797 372L798 373L797 372M402 373L403 374L402 373M579 373L580 374L579 373z"/>
<path style="fill:#fcbb6c; stroke:none;" d="M616 373L617 374L616 373z"/>
<path style="fill:#fde0bc; stroke:none;" d="M797 373L798 374L797 373M402 374L403 375L402 374M580 374L581 375L580 374M615 374L616 375L615 374z"/>
<path style="fill:#fcbb6c; stroke:none;" d="M580 375L581 376L580 375M796.333 375.667L796.667 376.333L796.333 375.667z"/>
<path style="fill:#fcd39f; stroke:none;" d="M581 376L582 377L581 376z"/>
<path style="fill:#fcbb6c; stroke:none;" d="M614 376L615 377L614 376M403 377L404 378L403 377z"/>
<path style="fill:#fde0bc; stroke:none;" d="M582 377L583 378L582 377M613 377L614 378L613 377z"/>
<path style="fill:#fcd39f; stroke:none;" d="M796 377L797 378L796 377M403 378L404 379L403 378z"/>
<path style="fill:#fcbb6c; stroke:none;" d="M582 378L583 379L582 378z"/>
<path style="fill:#fde0bc; stroke:none;" d="M796 378L797 379L796 378M403 379L404 380L403 379z"/>
<path style="fill:#fcd39f; stroke:none;" d="M583 379L584 380L583 379z"/>
<path style="fill:#fcbb6c; stroke:none;" d="M612 379L613 380L612 379z"/>
<path style="fill:#fde0bc; stroke:none;" d="M584 380L585 381L584 380z"/>
<path style="fill:#fcd39f; stroke:none;" d="M611 380L612 381L611 380z"/>
<path style="fill:#fcbb6c; stroke:none;" d="M795 380L796 381L795 380M404 381L405 382L404 381M584 381L585 382L584 381z"/>
<path style="fill:#fcd39f; stroke:none;" d="M795 381L796 382L795 381M404 382L405 383L404 382M585 382L586 383L585 382z"/>
<path style="fill:#fcbb6c; stroke:none;" d="M610 382L611 383L610 382z"/>
<path style="fill:#fde0bc; stroke:none;" d="M795 382L796 383L795 382M404 383L405 384L404 383M586 383L587 384L586 383z"/>
<path style="fill:#fcd39f; stroke:none;" d="M609 383L610 384L609 383z"/>
<path style="fill:#fcbb6c; stroke:none;" d="M586 384L587 385L586 384z"/>
<path style="fill:#fde0bc; stroke:none;" d="M608 384L609 385L608 384z"/>
<path style="fill:#fcbb6c; stroke:none;" d="M794 384L795 385L794 384M405 385L406 386L405 385z"/>
<path style="fill:#fcd39f; stroke:none;" d="M587 385L588 386L587 385z"/>
<path style="fill:#fcbb6c; stroke:none;" d="M608 385L609 386L608 385z"/>
<path style="fill:#fcd39f; stroke:none;" d="M794 385L795 386L794 385M405 386L406 387L405 386z"/>
<path style="fill:#fde0bc; stroke:none;" d="M588 386L589 387L588 386z"/>
<path style="fill:#fcd39f; stroke:none;" d="M607 386L608 387L607 386z"/>
<path style="fill:#fde0bc; stroke:none;" d="M794 386L795 387L794 386M405 387L406 388L405 387z"/>
<path style="fill:#fcbb6c; stroke:none;" d="M588 387L589 388L588 387z"/>
<path style="fill:#fde0bc; stroke:none;" d="M606 387L607 388L606 387z"/>
<path style="fill:#fcd39f; stroke:none;" d="M589 388L590 389L589 388z"/>
<path style="fill:#fcbb6c; stroke:none;" d="M606 388L607 389L606 388M793 388L794 389L793 388M406 389L407 390L406 389z"/>
<path style="fill:#fde0bc; stroke:none;" d="M590 389L591 390L590 389z"/>
<path style="fill:#fcd39f; stroke:none;" d="M605 389L606 390L605 389M793 389L794 390L793 389M406 390L407 391L406 390z"/>
<path style="fill:#fcbb6c; stroke:none;" d="M590 390L591 391L590 390z"/>
<path style="fill:#fde0bc; stroke:none;" d="M604 390L605 391L604 390M793 390L794 391L793 390M406 391L407 392L406 391z"/>
<path style="fill:#fcd39f; stroke:none;" d="M591 391L592 392L591 391z"/>
<path style="fill:#fcbb6c; stroke:none;" d="M604 391L605 392L604 391M792.333 391.667L792.667 392.333L792.333 391.667M407 392L408 393L407 392z"/>
<path style="fill:#fde0bc; stroke:none;" d="M592 392L593 393L592 392z"/>
<path style="fill:#fcd39f; stroke:none;" d="M603 392L604 393L603 392M407 393L408 394L407 393z"/>
<path style="fill:#fcbb6c; stroke:none;" d="M592 393L593 394L592 393z"/>
<path style="fill:#fde0bc; stroke:none;" d="M602 393L603 394L602 393M792 393L793 394L792 393M407 394L408 395L407 394z"/>
<path style="fill:#fcd39f; stroke:none;" d="M593 394L594 395L593 394z"/>
<path style="fill:#fcbb6c; stroke:none;" d="M602 394L603 395L602 394z"/>
<path style="fill:#fde0bc; stroke:none;" d="M594 395L595 396L594 395z"/>
<path style="fill:#fcd39f; stroke:none;" d="M601 395L602 396L601 395z"/>
<path style="fill:#fcbb6c; stroke:none;" d="M791 395L792 396L791 395M408 396L409 397L408 396M594 396L595 397L594 396z"/>
<path style="fill:#fde0bc; stroke:none;" d="M600 396L601 397L600 396M791 396L792 397L791 396M408 397L409 398L408 397z"/>
<path style="fill:#fcd39f; stroke:none;" d="M595 397L596 398L595 397z"/>
<path style="fill:#fcbb6c; stroke:none;" d="M600 397L601 398L600 397z"/>
<path style="fill:#fde0bc; stroke:none;" d="M596 398L599 400L599 399L596 398z"/>
<path style="fill:#fcd39f; stroke:none;" d="M599 398L600 399L599 398z"/>
<path style="fill:#fcbb6c; stroke:none;" d="M790 398L791 399L790 398M409 399L410 400L409 399M596 399L597 400L596 399z"/>
<path style="fill:#fde0bc; stroke:none;" d="M790 399L791 400L790 399M409 400L410 401L409 400z"/>
<path style="fill:#fcbb6c; stroke:none;" d="M789 401L790 402L789 401z"/>
<path style="fill:#fcd39f; stroke:none;" d="M410 402L411 403L410 402z"/>
<path style="fill:#fde0bc; stroke:none;" d="M789 402L790 403L789 402M410 403L411 404L410 403z"/>
<path style="fill:#fcbb6c; stroke:none;" d="M411 404L412 405L411 404M788 404L789 405L788 404z"/>
<path style="fill:#fcd39f; stroke:none;" d="M411 405L412 406L411 405z"/>
<path style="fill:#fde0bc; stroke:none;" d="M788 405L789 406L788 405M411 406L412 407L411 406z"/>
<path style="fill:#fcbb6c; stroke:none;" d="M787 406L788 407L787 406M412 407L413 408L412 407z"/>
<path style="fill:#fcd39f; stroke:none;" d="M787 407L788 408L787 407z"/>
<path style="fill:#fde0bc; stroke:none;" d="M412 408L413 409L412 408z"/>
<path style="fill:#fcbb6c; stroke:none;" d="M786 409L787 410L786 409z"/>
<path style="fill:#fcd39f; stroke:none;" d="M413 410L414 411L413 410z"/>
<path style="fill:#fde0bc; stroke:none;" d="M786 410L787 411L786 410z"/>
<path style="fill:#fcbb6c; stroke:none;" d="M785 411L786 412L785 411M414 412L415 413L414 412z"/>
<path style="fill:#fcd39f; stroke:none;" d="M785 412L786 413L785 412z"/>
<path style="fill:#fde0bc; stroke:none;" d="M414 413L415 414L414 413z"/>
<path style="fill:#fcbb6c; stroke:none;" d="M415 414L416 415L415 414M784 414L785 415L784 414z"/>
<path style="fill:#fcd39f; stroke:none;" d="M415 415L416 416L415 415z"/>
<path style="fill:#fde0bc; stroke:none;" d="M784 415L785 416L784 415z"/>
<path style="fill:#fcbb6c; stroke:none;" d="M783 416L784 417L783 416z"/>
<path style="fill:#fcd39f; stroke:none;" d="M416 417L417 418L416 417z"/>
<path style="fill:#fde0bc; stroke:none;" d="M783 417L784 418L783 417z"/>
<path style="fill:#fcbb6c; stroke:none;" d="M782 418L783 419L782 418M417 419L418 420L417 419z"/>
<path style="fill:#fcd39f; stroke:none;" d="M658 419L659 420L658 419z"/>
<path style="fill:#fde0bc; stroke:none;" d="M659 419L659 420L674 420L659 419M716 419L716 420L731 420L731 454L732 429L730.397 420.028L716 419z"/>
<path style="fill:#fcd39f; stroke:none;" d="M731 419L732 420L731 419M782 419L783 420L782 419z"/>
<path style="fill:#fde0bc; stroke:none;" d="M417 420L418 421L417 420z"/>
<path style="fill:#fcbb6c; stroke:none;" d="M418 421L419 422L418 421z"/>
<path style="fill:#fde0bc; stroke:none;" d="M658 421L659 422L658 421z"/>
<path style="fill:#fcd39f; stroke:none;" d="M781 421L782 422L781 421z"/>
<path style="fill:#fde0bc; stroke:none;" d="M418 422L419 423L418 422z"/>
<path style="fill:#fcbb6c; stroke:none;" d="M419 423L420 424L419 423z"/>
<path style="fill:#fcd39f; stroke:none;" d="M780 423L781 424L780 423z"/>
<path style="fill:#fde0bc; stroke:none;" d="M419 424L420 425L419 424z"/>
<path style="fill:#fcbb6c; stroke:none;" d="M420 425L421 426L420 425z"/>
<path style="fill:#fcd39f; stroke:none;" d="M779 425L780 426L779 425z"/>
<path style="fill:#fde0bc; stroke:none;" d="M420 426L421 427L420 426z"/>
<path style="fill:#fcbb6c; stroke:none;" d="M421 427L422 428L421 427z"/>
<path style="fill:#fcd39f; stroke:none;" d="M778 427L779 428L778 427z"/>
<path style="fill:#fde0bc; stroke:none;" d="M421 428L422 429L421 428z"/>
<path style="fill:#fcbb6c; stroke:none;" d="M422 429L423 430L422 429z"/>
<path style="fill:#fcd39f; stroke:none;" d="M777 429L778 430L777 429z"/>
<path style="fill:#fde0bc; stroke:none;" d="M422 430L423 431L422 430z"/>
<path style="fill:#fcbb6c; stroke:none;" d="M776 430L777 431L776 430z"/>
<path style="fill:#fcd39f; stroke:none;" d="M423 431L424 432L423 431z"/>
<path style="fill:#fde0bc; stroke:none;" d="M776 431L777 432L776 431z"/>
<path style="fill:#fcbb6c; stroke:none;" d="M775 432L776 433L775 432z"/>
<path style="fill:#fcd39f; stroke:none;" d="M424 433L425 434L424 433z"/>
<path style="fill:#fde0bc; stroke:none;" d="M775 433L776 434L775 433z"/>
<path style="fill:#fcbb6c; stroke:none;" d="M425 434L426 435L425 434M774 434L775 435L774 434z"/>
<path style="fill:#fde0bc; stroke:none;" d="M425 435L426 436L425 435z"/>
<path style="fill:#fcbb6c; stroke:none;" d="M426 436L427 437L426 436z"/>
<path style="fill:#fcd39f; stroke:none;" d="M773 436L774 437L773 436z"/>
<path style="fill:#fde0bc; stroke:none;" d="M426 437L427 438L426 437z"/>
<path style="fill:#fcbb6c; stroke:none;" d="M772 437L773 438L772 437z"/>
<path style="fill:#fcd39f; stroke:none;" d="M427 438L428 439L427 438z"/>
<path style="fill:#fde0bc; stroke:none;" d="M772 438L773 439L772 438z"/>
<path style="fill:#fcbb6c; stroke:none;" d="M771 439L772 440L771 439z"/>
<path style="fill:#fde0bc; stroke:none;" d="M428 440L429 441L428 440z"/>
<path style="fill:#fcbb6c; stroke:none;" d="M429 441L430 442L429 441z"/>
<path style="fill:#fcd39f; stroke:none;" d="M770 441L771 442L770 441z"/>
<path style="fill:#fde0bc; stroke:none;" d="M429 442L430 443L429 442z"/>
<path style="fill:#fcbb6c; stroke:none;" d="M769 442L770 443L769 442z"/>
<path style="fill:#fcd39f; stroke:none;" d="M430 443L431 444L430 443z"/>
<path style="fill:#fde0bc; stroke:none;" d="M769 443L770 444L769 443z"/>
<path style="fill:#fcbb6c; stroke:none;" d="M431 444L432 445L431 444z"/>
<path style="fill:#fcd39f; stroke:none;" d="M768 444L769 445L768 444z"/>
<path style="fill:#fde0bc; stroke:none;" d="M431 445L432 446L431 445z"/>
<path style="fill:#fcbb6c; stroke:none;" d="M767 445L768 446L767 445z"/>
<path style="fill:#fcd39f; stroke:none;" d="M432 446L433 447L432 446z"/>
<path style="fill:#fde0bc; stroke:none;" d="M767 446L768 447L767 446z"/>
<path style="fill:#fcbb6c; stroke:none;" d="M433 447L434 448L433 447z"/>
<path style="fill:#fcd39f; stroke:none;" d="M766 447L767 448L766 447z"/>
<path style="fill:#fde0bc; stroke:none;" d="M433 448L434 449L433 448z"/>
<path style="fill:#fcbb6c; stroke:none;" d="M765 448L766 449L765 448z"/>
<path style="fill:#fcd39f; stroke:none;" d="M434 449L435 450L434 449z"/>
<path style="fill:#fde0bc; stroke:none;" d="M765 449L766 450L765 449z"/>
<path style="fill:#fcbb6c; stroke:none;" d="M435 450L436 451L435 450z"/>
<path style="fill:#fcd39f; stroke:none;" d="M764 450L765 451L764 450z"/>
<path style="fill:#fcbb6c; stroke:none;" d="M763 451L764 452L763 451z"/>
<path style="fill:#fde0bc; stroke:none;" d="M436 452L437 453L436 452M763 452L764 453L763 452z"/>
<path style="fill:#fcbb6c; stroke:none;" d="M437 453L438 454L437 453z"/>
<path style="fill:#fde0bc; stroke:none;" d="M762 453L763 454L762 453z"/>
<path style="fill:#fcbb6c; stroke:none;" d="M438 454L439 455L438 454M481 454L482 455L481 454M522 454L523 455L522 454z"/>
<path style="fill:#fcd39f; stroke:none;" d="M658 454L658 455L731 455L708 454L658 454z"/>
<path style="fill:#fcbb6c; stroke:none;" d="M731 454L732 455L731 454M761 454L762 455L761 454z"/>
<path style="fill:#fde0bc; stroke:none;" d="M438 455L439 456L438 455z"/>
<path style="fill:#fcbb6c; stroke:none;" d="M760 455L761 456L760 455z"/>
<path style="fill:#fde0bc; stroke:none;" d="M439 456L440 457L439 456M760 456L761 457L760 456z"/>
<path style="fill:#fcbb6c; stroke:none;" d="M440 457L441 458L440 457z"/>
<path style="fill:#fde0bc; stroke:none;" d="M759 457L760 458L759 457z"/>
<path style="fill:#fcbb6c; stroke:none;" d="M441 458L442 459L441 458M758 458L759 459L758 458M757 459L758 460L757 459z"/>
<path style="fill:#fde0bc; stroke:none;" d="M442 460L443 461L442 460z"/>
<path style="fill:#fcd39f; stroke:none;" d="M443 461L444 462L443 461z"/>
<path style="fill:#fde0bc; stroke:none;" d="M756 461L757 462L756 461z"/>
<path style="fill:#fcbb6c; stroke:none;" d="M444 462L445 463L444 462z"/>
<path style="fill:#fcd39f; stroke:none;" d="M755 462L756 463L755 462z"/>
<path style="fill:#fcbb6c; stroke:none;" d="M445 463L446 464L445 463z"/>
<path style="fill:#fcd39f; stroke:none;" d="M754 463L755 464L754 463z"/>
<path style="fill:#fcbb6c; stroke:none;" d="M753 464L754 465L753 464z"/>
<path style="fill:#fde0bc; stroke:none;" d="M446 465L447 466L446 465z"/>
<path style="fill:#fcbb6c; stroke:none;" d="M752 465L753 466L752 465z"/>
<path style="fill:#fde0bc; stroke:none;" d="M447 466L448 467L447 466z"/>
<path style="fill:#fcd39f; stroke:none;" d="M448 467L449 468L448 467z"/>
<path style="fill:#fde0bc; stroke:none;" d="M751 467L752 468L751 467z"/>
<path style="fill:#fcd39f; stroke:none;" d="M449 468L450 469L449 468z"/>
<path style="fill:#fde0bc; stroke:none;" d="M750 468L751 469L750 468z"/>
<path style="fill:#fcbb6c; stroke:none;" d="M450 469L451 470L450 469z"/>
<path style="fill:#fcd39f; stroke:none;" d="M749 469L750 470L749 469z"/>
<path style="fill:#fcbb6c; stroke:none;" d="M451 470L452 471L451 470z"/>
<path style="fill:#fcd39f; stroke:none;" d="M748 470L749 471L748 470z"/>
<path style="fill:#fcbb6c; stroke:none;" d="M452 471L453 472L452 471z"/>
<path style="fill:#fcd39f; stroke:none;" d="M747 471L748 472L747 471z"/>
<path style="fill:#fcbb6c; stroke:none;" d="M453 472L454 473L453 472M746 472L747 473L746 472M454 473L455 474L454 473M745 473L746 474L745 473M744 474L745 475L744 474M743 475L744 476L743 475M742 476L743 477L742 476M741 477L742 478L741 477M740 478L741 479L740 478M739 479L740 480L739 479M461 480L462 481L461 480M738 480L739 481L738 480M462 481L463 482L462 481M737 481L738 482L737 481M463 482L464 483L463 482z"/>
<path style="fill:#fcd39f; stroke:none;" d="M736 482L737 483L736 482z"/>
<path style="fill:#fcbb6c; stroke:none;" d="M464 483L465 484L464 483z"/>
<path style="fill:#fcd39f; stroke:none;" d="M735 483L736 484L735 483z"/>
<path style="fill:#fcbb6c; stroke:none;" d="M465 484L466 485L465 484z"/>
<path style="fill:#fcd39f; stroke:none;" d="M734 484L735 485L734 484M466 485L467 486L466 485z"/>
<path style="fill:#fde0bc; stroke:none;" d="M733 485L734 486L733 485z"/>
<path style="fill:#fcd39f; stroke:none;" d="M467 486L468 487L467 486z"/>
<path style="fill:#fde0bc; stroke:none;" d="M732 486L733 487L732 486M468 487L469 488L468 487z"/>
<path style="fill:#fcbb6c; stroke:none;" d="M730 487L731 488L730 487z"/>
<path style="fill:#fde0bc; stroke:none;" d="M469 488L470 489L469 488z"/>
<path style="fill:#fcbb6c; stroke:none;" d="M729 488L730 489L729 488M471 489L472 490L471 489M728 489L729 490L728 489M472 490L473 491L472 490z"/>
<path style="fill:#fcd39f; stroke:none;" d="M727 490L728 491L727 490M473 491L474 492L473 491z"/>
<path style="fill:#fde0bc; stroke:none;" d="M726 491L727 492L726 491M474 492L475 493L474 492z"/>
<path style="fill:#fcbb6c; stroke:none;" d="M724 492L725 493L724 492M476 493L477 494L476 493M723 493L724 494L723 493M477 494L478 495L477 494z"/>
<path style="fill:#fcd39f; stroke:none;" d="M722 494L723 495L722 494M478 495L479 496L478 495z"/>
<path style="fill:#fcbb6c; stroke:none;" d="M720 495L721 496L720 495z"/>
<path style="fill:#fde0bc; stroke:none;" d="M721 495L722 496L721 495M479 496L480 497L479 496z"/>
<path style="fill:#fcbb6c; stroke:none;" d="M480 496L481 497L480 496M719 496L720 497L719 496M481 497L482 498L481 497z"/>
<path style="fill:#fcd39f; stroke:none;" d="M718 497L719 498L718 497z"/>
<path style="fill:#fde0bc; stroke:none;" d="M482 498L483 499L482 498z"/>
<path style="fill:#fcbb6c; stroke:none;" d="M716 498L717 499L716 498z"/>
<path style="fill:#fde0bc; stroke:none;" d="M717 498L718 499L717 498z"/>
<path style="fill:#fcbb6c; stroke:none;" d="M484 499L485 500L484 499z"/>
<path style="fill:#fcd39f; stroke:none;" d="M715 499L716 500L715 499M485 500L486 501L485 500z"/>
<path style="fill:#fde0bc; stroke:none;" d="M714 500L715 501L714 500M486 501L487 502L486 501z"/>
<path style="fill:#fcbb6c; stroke:none;" d="M487 501L488 502L487 501M712 501L713 502L712 501z"/>
<path style="fill:#fcd39f; stroke:none;" d="M488 502L489 503L488 502z"/>
<path style="fill:#fde0bc; stroke:none;" d="M711 502L712 503L711 502M489 503L490 504L489 503z"/>
<path style="fill:#fcbb6c; stroke:none;" d="M490 503L491 504L490 503M709 503L710 504L709 503z"/>
<path style="fill:#fcd39f; stroke:none;" d="M491 504L492 505L491 504z"/>
<path style="fill:#fde0bc; stroke:none;" d="M708 504L709 505L708 504z"/>
<path style="fill:#fcbb6c; stroke:none;" d="M493 505L494 506L493 505z"/>
<path style="fill:#fcd39f; stroke:none;" d="M706 505L707 506L706 505z"/>
<path style="fill:#fde0bc; stroke:none;" d="M494 506L495 507L494 506z"/>
<path style="fill:#fcbb6c; stroke:none;" d="M704 506L705 507L704 506z"/>
<path style="fill:#fde0bc; stroke:none;" d="M705 506L706 507L705 506z"/>
<path style="fill:#fcd39f; stroke:none;" d="M496 507L497 508L496 507M703 507L704 508L703 507z"/>
<path style="fill:#fde0bc; stroke:none;" d="M497 508L498 509L497 508z"/>
<path style="fill:#fcbb6c; stroke:none;" d="M498 508L499 509L498 508M701 508L702 509L701 508z"/>
<path style="fill:#fde0bc; stroke:none;" d="M499 509L500 510L499 509z"/>
<path style="fill:#fcbb6c; stroke:none;" d="M500 509L501 510L500 509M699 509L700 510L699 509z"/>
<path style="fill:#fde0bc; stroke:none;" d="M700 509L701 510L700 509z"/>
<path style="fill:#fcd39f; stroke:none;" d="M501 510L502 511L501 510z"/>
<path style="fill:#fcbb6c; stroke:none;" d="M697 510L698 511L697 510z"/>
<path style="fill:#fde0bc; stroke:none;" d="M698 510L699 511L698 510z"/>
<path style="fill:#fcd39f; stroke:none;" d="M503 511L504 512L503 511M696 511L697 512L696 511z"/>
<path style="fill:#fde0bc; stroke:none;" d="M504 512L505 513L504 512z"/>
<path style="fill:#fcbb6c; stroke:none;" d="M505 512L506 513L505 512z"/>
<path style="fill:#fcd39f; stroke:none;" d="M694 512L695 513L694 512z"/>
<path style="fill:#fde0bc; stroke:none;" d="M506 513L507 514L506 513z"/>
<path style="fill:#fcbb6c; stroke:none;" d="M507 513L508 514L507 513z"/>
<path style="fill:#fcd39f; stroke:none;" d="M692 513L693 514L692 513z"/>
<path style="fill:#fde0bc; stroke:none;" d="M508 514L509 515L508 514z"/>
<path style="fill:#fcbb6c; stroke:none;" d="M509 514L510 515L509 514M690 514L691 515L690 514z"/>
<path style="fill:#fde0bc; stroke:none;" d="M510 515L511 516L510 515z"/>
<path style="fill:#fcbb6c; stroke:none;" d="M511 515L512 516L511 515M688 515L689 516L688 515z"/>
<path style="fill:#fde0bc; stroke:none;" d="M689 515L690 516L689 515M512 516L513 517L512 516z"/>
<path style="fill:#fcbb6c; stroke:none;" d="M513 516L514 517L513 516z"/>
<path style="fill:#fcd39f; stroke:none;" d="M686 516L687 517L686 516z"/>
<path style="fill:#fde0bc; stroke:none;" d="M514 517L515 518L514 517z"/>
<path style="fill:#fcbb6c; stroke:none;" d="M515 517L516 518L515 517z"/>
<path style="fill:#fcd39f; stroke:none;" d="M684 517L685 518L684 517M517 518L518 519L517 518z"/>
<path style="fill:#fcbb6c; stroke:none;" d="M681 518L682 519L681 518z"/>
<path style="fill:#fcd39f; stroke:none;" d="M682 518L683 519L682 518M519 519L520 520L519 519z"/>
<path style="fill:#fcbb6c; stroke:none;" d="M520 519L521 520L520 519M679 519L680 520L679 519z"/>
<path style="fill:#fde0bc; stroke:none;" d="M680 519L681 520L680 519M521 520L522 521L521 520z"/>
<path style="fill:#fcbb6c; stroke:none;" d="M522 520L523 521L522 520M677 520L678 521L677 520z"/>
<path style="fill:#fde0bc; stroke:none;" d="M678 520L679 521L678 520M523 521L524 522L523 521z"/>
<path style="fill:#fcd39f; stroke:none;" d="M524 521L525 522L524 521z"/>
<path style="fill:#fcbb6c; stroke:none;" d="M674 521L675 522L674 521z"/>
<path style="fill:#fcd39f; stroke:none;" d="M675 521L676 522L675 521z"/>
<path style="fill:#fde0bc; stroke:none;" d="M526 522L527 523L526 522z"/>
<path style="fill:#fcbb6c; stroke:none;" d="M527 522L528 523L527 522M672 522L673 523L672 522z"/>
<path style="fill:#fde0bc; stroke:none;" d="M673 522L674 523L673 522M528 523L529 524L528 523z"/>
<path style="fill:#fcd39f; stroke:none;" d="M529 523L530 524L529 523z"/>
<path style="fill:#fcbb6c; stroke:none;" d="M530 523L531 524L530 523M669 523L670 524L669 523z"/>
<path style="fill:#fcd39f; stroke:none;" d="M670 523L671 524L670 523z"/>
<path style="fill:#fde0bc; stroke:none;" d="M531 524L532 525L531 524z"/>
<path style="fill:#fcd39f; stroke:none;" d="M532 524L533 525L532 524z"/>
<path style="fill:#fcbb6c; stroke:none;" d="M666 524L667 525L666 524z"/>
<path style="fill:#fcd39f; stroke:none;" d="M667 524L668 525L667 524z"/>
<path style="fill:#fde0bc; stroke:none;" d="M668 524L669 525L668 524M534 525L535 526L534 525z"/>
<path style="fill:#fcbb6c; stroke:none;" d="M535 525L536 526L535 525M663 525L664 526L663 525z"/>
<path style="fill:#fcd39f; stroke:none;" d="M664 525L665 526L664 525z"/>
<path style="fill:#fde0bc; stroke:none;" d="M665 525L666 526L665 525M537 526L538 527L537 526z"/>
<path style="fill:#fcbb6c; stroke:none;" d="M538 526L539 527L538 526M660 526L661 527L660 526z"/>
<path style="fill:#fcd39f; stroke:none;" d="M661 526L662 527L661 526z"/>
<path style="fill:#fde0bc; stroke:none;" d="M662 526L663 527L662 526M540 527L541 528L540 527z"/>
<path style="fill:#fcd39f; stroke:none;" d="M541 527L542 528L541 527z"/>
<path style="fill:#fcbb6c; stroke:none;" d="M542 527L543 528L542 527M657 527L658 528L657 527z"/>
<path style="fill:#fcd39f; stroke:none;" d="M658 527L659 528L658 527z"/>
<path style="fill:#fde0bc; stroke:none;" d="M659 527L660 528L659 527z"/>
<path style="fill:#fcd39f; stroke:none;" d="M544 528L545 529L544 528z"/>
<path style="fill:#fcbb6c; stroke:none;" d="M545 528L546 529L545 528M653.667 528.333L654.333 528.667L653.667 528.333z"/>
<path style="fill:#fde0bc; stroke:none;" d="M655 528L656 529L655 528M547 529L548 530L547 529z"/>
<path style="fill:#fcd39f; stroke:none;" d="M548 529L549 530L548 529z"/>
<path style="fill:#fcbb6c; stroke:none;" d="M549 529L550 530L549 529M650 529L651 530L650 529z"/>
<path style="fill:#fcd39f; stroke:none;" d="M651 529L652 530L651 529z"/>
<path style="fill:#fde0bc; stroke:none;" d="M652 529L653 530L652 529M551 530L552 531L551 530z"/>
<path style="fill:#fcd39f; stroke:none;" d="M552 530L553 531L552 530z"/>
<path style="fill:#fcbb6c; stroke:none;" d="M553 530L554 531L553 530M646 530L647 531L646 530z"/>
<path style="fill:#fcd39f; stroke:none;" d="M647 530L648 531L647 530z"/>
<path style="fill:#fde0bc; stroke:none;" d="M648 530L649 531L648 530M555 531L556 532L555 531z"/>
<path style="fill:#fcd39f; stroke:none;" d="M556 531L557 532L556 531z"/>
<path style="fill:#fcbb6c; stroke:none;" d="M557.667 531.333L558.333 531.667L557.667 531.333M641.667 531.333L642.333 531.667L641.667 531.333z"/>
<path style="fill:#fcd39f; stroke:none;" d="M643 531L644 532L643 531z"/>
<path style="fill:#fde0bc; stroke:none;" d="M644 531L645 532L644 531M560 532L561 533L560 532z"/>
<path style="fill:#fcd39f; stroke:none;" d="M561 532L562 533L561 532z"/>
<path style="fill:#fcbb6c; stroke:none;" d="M562.667 532.333L563.333 532.667L562.667 532.333M636.667 532.333L637.333 532.667L636.667 532.333z"/>
<path style="fill:#fcd39f; stroke:none;" d="M638 532L639 533L638 532z"/>
<path style="fill:#fde0bc; stroke:none;" d="M639 532L640 533L639 532M565.667 533.333L566.333 533.667L565.667 533.333z"/>
<path style="fill:#fcd39f; stroke:none;" d="M567 533L568 534L567 533z"/>
<path style="fill:#fcbb6c; stroke:none;" d="M568.667 533.333L569.333 533.667L568.667 533.333M630.667 533.333L631.333 533.667L630.667 533.333z"/>
<path style="fill:#fcd39f; stroke:none;" d="M632 533L633 534L632 533z"/>
<path style="fill:#fde0bc; stroke:none;" d="M633.667 533.333L634.333 533.667L633.667 533.333M572 534L573 535L572 534z"/>
<path style="fill:#fcd39f; stroke:none;" d="M573.667 534.333L574.333 534.667L573.667 534.333z"/>
<path style="fill:#fcbb6c; stroke:none;" d="M575 534L575 535L578 535L575 534M622 534L622 535L625 535L622 534z"/>
<path style="fill:#fcd39f; stroke:none;" d="M625.667 534.333L626.333 534.667L625.667 534.333z"/>
<path style="fill:#fde0bc; stroke:none;" d="M627 534L628 535L627 534M580.667 535.333L581.333 535.667L580.667 535.333z"/>
<path style="fill:#fcd39f; stroke:none;" d="M582 535L582 536L585 536L582 535z"/>
<path style="fill:#fcbb6c; stroke:none;" d="M585 535L585 536L590 536L585 535M609 535L609 536L615 536L609 535z"/>
<path style="fill:#fcd39f; stroke:none;" d="M615.667 535.333L616.333 535.667L615.667 535.333z"/>
<path style="fill:#fde0bc; stroke:none;" d="M617 535L617 536L620 536L617 535M598 536L598 537L602 537L598 536z"/>
</svg>
